<?xml version="1.0" encoding="iso-8859-1"?>
<!-- Uploaded to: SVG Repo, www.svgrepo.com, Generator: SVG Repo Mixer Tools -->
<svg version="1.1" id="Layer_1" xmlns="http://www.w3.org/2000/svg" xmlns:xlink="http://www.w3.org/1999/xlink" 
	 viewBox="0 0 508.1 508.1" xml:space="preserve">
<g>
	<path style="fill:#F2F2F2;" d="M460.55,212.2c-20.4,0-38.5-13-45-32.4l-10.1-30.1c10.3,30.7-12.6,62.5-45,62.5h-6.6
		c-24.2,0-44.5-18.2-47.1-42.2l-1.2-10.5c3.1,28.1-18.9,52.7-47.1,52.7h-8.9c-28.3,0-50.3-24.6-47.1-52.7l-1.2,10.5
		c-2.7,24-23,42.2-47.1,42.2h-6.6c-32.4,0-55.3-31.8-45-62.5l-10.1,30.1c-6.5,19.3-24.6,32.4-45,32.4c-3.8,0-7.3-0.5-10.8-1.3v276
		c0,11.7,9.5,21.2,21.2,21.2h392.2c11.7,0,21.2-9.5,21.2-21.2v-276C467.85,211.7,464.25,212.2,460.55,212.2z"/>
</g>
<path style="fill:#84DBFF;" d="M450.15,0H57.95c-11.7,0-21.2,9.5-21.2,21.2v65.5h434.5V21.2C471.35,9.5,461.85,0,450.15,0z"/>
<rect x="84.45" y="308.1" style="fill:#40596B;" width="152.9" height="199.8"/>
<rect x="280.25" y="358.6" style="fill:#FFFFFF;" width="148.2" height="98.9"/>
<rect x="291.45" y="369.9" style="fill:#84DBFF;" width="125.6" height="76.3"/>
<g>
	<path style="fill:#FFFFFF;" d="M102.65,149.7c-10.3,30.7,12.6,62.5,45,62.5h6.6c24.2,0,44.5-18.2,47.1-42.2l9.3-83.3h-86.9
		L102.65,149.7z"/>
	<path style="fill:#FFFFFF;" d="M405.45,149.7l-21.1-63h-86.9l9.3,83.3c2.7,24,23,42.2,47.1,42.2h6.6
		C392.95,212.2,415.75,180.4,405.45,149.7z"/>
</g>
<g>
	<path style="fill:#FF7058;" d="M6.15,141.6c-17.6,31.6,5.2,70.5,41.4,70.5c20.4,0,38.5-13,45-32.4l31.1-93.1h-86.9L6.15,141.6z"/>
	<path style="fill:#FF7058;" d="M297.55,86.7h-86.9l-8.1,72.8c-3.1,28.1,18.9,52.7,47.1,52.7h8.9c28.3,0,50.3-24.6,47.1-52.7
		L297.55,86.7z"/>
	<path style="fill:#FF7058;" d="M501.95,141.6l-30.6-54.9h-86.9l31.1,93.1c6.5,19.3,24.6,32.4,45,32.4
		C496.75,212.2,519.55,173.3,501.95,141.6z"/>
	<circle style="fill:#FF7058;" cx="217.45" cy="408.1" r="10.9"/>
</g>
<g>
	<path style="fill:#CDD6E0;" d="M102.65,149.6l-10.1,30.2c-6.6,19.4-24.7,32.4-45,32.4c-3.8,0-7.3-0.5-10.8-1.3v11.4
		c3.4,0.8,7.1,1.3,10.8,1.3c20.3,0,38.5-13.1,45-32.5l7.7-23.1C99.95,162,100.55,155.8,102.65,149.6z"/>
	<path style="fill:#CDD6E0;" d="M460.55,212.2c-20.4,0-38.5-13-45-32.4l-9.7-29.2c1.8,5.9,2.4,11.8,2.1,17.5l7.7,23
		c6.5,19.4,24.6,32.5,45,32.5c3.7,0,7.3-0.4,10.7-1.3V211C467.85,211.7,464.25,212.2,460.55,212.2z"/>
	<path style="fill:#CDD6E0;" d="M360.55,212.2h-6.7c-24.1,0-44.4-18.2-47.1-42.2l-1.2-10.4c3.1,28-18.8,52.6-47.1,52.6h-8.9
		c-28.3,0-50.3-24.7-47.2-52.7l-1.2,10.5c-2.6,24-23,42.2-47.1,42.2h-6.6c-25,0-44.3-18.9-47-41.7c-3.3,27.4,18,53.1,47,53.1h6.6
		c24.1,0,44.5-18.2,47.2-42.2l1.1-10.6c-3.1,28.2,18.9,52.8,47.2,52.8h8.9c28.3,0,50.2-24.7,47.1-52.8l1.2,10.6
		c2.6,24,23,42.2,47.2,42.2h6.5c29.1,0,50.5-25.6,47.2-53C404.85,193.3,385.55,212.2,360.55,212.2z"/>
</g>
</svg>